<svg version="1.1" id="Layer_1" xmlns="http://www.w3.org/2000/svg" xmlns:xlink="http://www.w3.org/1999/xlink" x="0px" y="0px"
	 width="100%" viewBox="0 0 142 140" enable-background="new 0 0 142 140" xml:space="preserve">
<path fill="#FFFFFF" opacity="1.000000" stroke="none" 
	d="
M143.000000,57.000000 
	C143.000000,84.972824 143.000000,112.945648 143.000000,140.959229 
	C95.739815,140.959229 48.479588,140.959229 1.109678,140.959229 
	C1.109678,94.451973 1.109678,47.903610 1.109678,1.000000 
	C29.019894,1.000000 57.041286,1.000000 85.562119,1.447476 
	C86.361252,4.983606 86.660942,8.072261 87.031380,11.890085 
	C98.809486,11.890085 110.185211,11.890085 121.560936,11.890085 
	C121.780983,12.382880 122.001030,12.875675 122.221069,13.368470 
	C83.845161,51.670998 45.469246,89.973526 7.628160,127.742256 
	C10.183711,130.617310 12.691257,133.438370 16.241812,137.432831 
	C54.679764,98.948814 92.928528,60.654217 131.684402,21.851902 
	C131.684402,33.607395 131.684402,44.889263 131.684402,57.000000 
	C135.813248,57.000000 139.406631,57.000000 143.000000,57.000000 
z"/>
<path fill="#E23728" opacity="1.000000" stroke="none" 
	d="
M143.000000,56.531731 
	C139.406631,57.000000 135.813248,57.000000 131.684402,57.000000 
	C131.684402,44.889263 131.684402,33.607395 131.684402,21.851902 
	C92.928528,60.654217 54.679764,98.948814 16.241812,137.432831 
	C12.691257,133.438370 10.183711,130.617310 7.628160,127.742256 
	C45.469246,89.973526 83.845161,51.670998 122.221069,13.368470 
	C122.001030,12.875675 121.780983,12.382880 121.560936,11.890085 
	C110.185211,11.890085 98.809486,11.890085 87.031380,11.890085 
	C86.660942,8.072261 86.361252,4.983606 86.030777,1.447476 
	C104.907166,1.000000 123.814331,1.000000 143.000000,1.000000 
	C143.000000,11.685950 143.000000,22.374317 142.728729,33.735359 
	C142.638321,35.605358 142.819153,36.802681 143.000000,38.000000 
	C143.000000,44.021152 143.000000,50.042305 143.000000,56.531731 
z"/>
<path fill="#ED8379" opacity="1.000000" stroke="none" 
	d="
M143.000000,37.600006 
	C142.819153,36.802681 142.638321,35.605358 142.728729,34.204018 
	C143.000000,35.066669 143.000000,36.133339 143.000000,37.600006 
z"/>
</svg>